<?xml version="1.0" encoding="UTF-8"?>
<svg id="_Слой_1" data-name="Слой 1" xmlns="http://www.w3.org/2000/svg" viewBox="0 0 1080 1080">
  <defs>
    <style>
      .cls-1 {
        fill: #fff;
      }
    </style>
  </defs>
  <path class="cls-1" d="m71.84,417.12h46.63v233.17h-53.29v-176.87l-41.3,11.33-12.99-45.64,60.96-21.99Z"/>
  <path class="cls-1" d="m358.97,619.98c-23.76,23.32-52.41,34.97-85.94,34.97s-62.4-11.66-85.94-34.97c-23.54-23.32-35.31-52.07-35.31-86.27s11.77-62.95,35.31-86.27c23.54-23.32,52.18-34.97,85.94-34.97s62.18,11.66,85.94,34.97c23.54,23.32,35.31,52.08,35.31,86.27s-11.77,62.95-35.31,86.27Zm-134.57-36.31c12.87,12.88,29.09,19.32,48.63,19.32s35.42-6.44,48.3-19.32c13.1-13.1,19.65-29.75,19.65-49.96s-6.55-36.86-19.65-49.96c-12.88-12.87-28.98-19.32-48.3-19.32s-35.76,6.44-48.63,19.32c-12.88,12.88-19.32,29.54-19.32,49.96s6.44,37.09,19.32,49.96Z"/>
  <path class="cls-1" d="m424.25,417.12h53.29v233.17h-53.29v-233.17Z"/>
  <path class="cls-1" d="m595.8,654.95c-23.98,0-43.86-5.11-59.62-15.32-15.77-10.21-26.98-24.32-33.64-42.31l45.97-26.65c9.33,21.54,25.65,32.31,48.97,32.31,21.1,0,31.64-6.33,31.64-18.98,0-7.11-3.45-12.43-10.33-15.99-7.11-4.21-19.77-8.77-37.97-13.66-9.99-2.66-18.6-5.66-25.81-8.99-7.22-3.33-14.38-7.66-21.49-12.99-6.88-5.55-12.16-12.43-15.82-20.65-3.67-8.21-5.49-17.66-5.49-28.31,0-21.32,7.66-38.53,22.98-51.63,15.54-12.88,33.97-19.32,55.29-19.32,19.32,0,36.25,4.44,50.8,13.32,14.54,8.88,26.03,21.99,34.48,39.31l-44.97,26.31c-4.22-8.88-9.44-15.6-15.66-20.15-6.22-4.55-14.44-6.83-24.65-6.83-7.99,0-14.16,1.72-18.49,5.16-4.33,3.45-6.49,7.61-6.49,12.49,0,5.78,2.66,10.78,7.99,14.99,5.55,4.44,16.87,9.11,33.98,13.99l21.65,6.99c5.55,1.78,11.99,4.78,19.32,9,7.99,4,13.99,8.33,17.99,12.99,4.21,4.45,7.94,10.38,11.16,17.82,3.22,7.44,4.83,15.94,4.83,25.48,0,22.21-7.99,39.75-23.98,52.63-15.99,12.66-36.87,18.99-62.62,18.99Z"/>
  <path class="cls-1" d="m854.27,650.29l-11.66-36.64h-86.6l-11.66,36.64h-58.29l79.28-233.17h67.95l79.28,233.17h-58.29Zm-82.28-86.6h54.63l-27.31-85.61-27.32,85.61Z"/>
  <path class="cls-1" d="m985.84,598.99h83.27v51.3h-136.57v-233.17h53.29v181.87Z"/>
</svg>