<?xml version="1.0" encoding="UTF-8"?>
<svg id="_Слой_1" data-name="Слой 1" xmlns="http://www.w3.org/2000/svg" viewBox="0 0 1080 1080">
  <defs>
    <style>
      .cls-1 {
        fill: #fff;
      }
    </style>
  </defs>
  <path class="cls-1" d="m540,15.2C250.62,15.2,15.2,250.62,15.2,540s235.42,524.8,524.8,524.8,524.8-235.42,524.8-524.8S829.38,15.2,540,15.2Zm0,82.72c243.77,0,442.08,198.32,442.08,442.09,0,2.49-.15,4.94-.19,7.41-51.4-18.2-106.55-24.02-160.82-21.79-1.54-34.91,0-70.75-.61-105.93.22-1.77-.06-3.36-1.27-3.86-20.57-12.13-42.13-22.5-64.41-30.82-6.95-3.36-14.34-3.86-21.89-3.09-.22.28-.39.49-.61.77v156.99c-9.1,3.91-19.19,6.07-28.45,9.87-2.98-69.48,1.54-141.17-1.65-211.26-27.41-14.83-56.8-27.85-86.8-35.9-.17.22-.33.44-.55.66-.28,81.23.33,162.79-.39,243.9-10.59-4.63-21.18-11.31-32.15-15.55-1.49-1.76-.5-4.02-.77-6.07V202.97c-.39-1.82.94-5.07-1.32-5.73-28.9-.94-58.01.17-86.41,5.52-1.82,102.29,1.1,205.52-1.05,307.76-12.13-.16-24.32-.49-36.39.72-.28-.22-.55-.33-.77-.55-.5-76.98.28-154.13-.33-231.05-20.07,3.36-40.59,13.56-59.83,21.67-9.37,4.36-18.75,9.04-27.57,14.17-.61.72-.66,1.21-.66,1.77-.06,70.97,0,142.05-.06,213.08-.28,1.88.88,4.85-1.38,5.74-9.32,4.3-18.2,9.93-27.24,14.5-1.6-55.2,0-111.45-.55-166.98-7.94-9.87-76.93,37.22-88.07,45.22-.99,35.24.66,70.86-.55,106.04-49.69-9.22-100.98-11.22-151.18-4.54,5.2-239.29,201.33-432.38,441.84-432.38Zm84.93,492.45c-43.4,30.88-82.17,68.1-120.05,105.65-37.5-51.5-87.13-93.8-144.26-122.47,80.13-48.86,190.19-40.15,264.31,16.82Zm-526.46-28.55c142.81-20.91,300.03,35.33,380.82,158.14-73.45,75.76-169.19,115.22-272.87,109.66-63.04-72.51-102.96-165.62-107.95-267.8Zm470.06,419.26c68.74-79.55,175.17-124.04,280.1-124.96-73.36,71.64-171.43,118-280.1,124.96Zm309.1-156.11c-133.75-6.72-271.91,49.04-353.1,156.74-97.36-3.37-186.77-38.36-258.35-95.02,151.4-13.97,228.02-99.87,338.36-206.16,51.28-47.15,114.2-83.76,184.18-92.92,62.69-8.74,129.38-4.38,188.19,20.11-12.66,81.99-47.99,156.56-99.28,217.24Z"/>
</svg>