<?xml version="1.0" encoding="UTF-8"?>
<svg id="_Слой_1" data-name="Слой 1" xmlns="http://www.w3.org/2000/svg" viewBox="0 0 1080 1080">
  <defs>
    <style>
      .cls-1 {
        fill: #fff;
      }
    </style>
  </defs>
  <path class="cls-1" d="m1050.8,498.87c-9.89-7.17-28.49-20.66-49.15-34.99-25.08-17.24-55.46-37.38-86.18-55.98-166.07-103.25-282.97-170.15-372.41-170.15s-198.32,58.88-377.17,170.15c-25.29,15.13-50.21,31.41-72.14,46.13,21.64,8.36,39.51,25.92,47.45,49.62,14.13,42.23-8.62,87.91-50.84,102.06-27.35,9.16-56.14,2.84-76.88-14.24v213.74c0,9.56,4.1,19.29,11.44,26.63,7.17,7.17,16.04,10.41,25.78,10.41h979.11c20.98,0,37.2-16.22,37.2-37.04v-214.14c-20.77,17.37-49.81,23.88-77.37,14.65-42.23-14.14-64.99-59.83-50.84-102.06,7.95-23.75,25.91-41.36,47.6-49.69-11.05,9.24-19.76,21.55-24.68,36.21-14.13,42.23,8.63,87.9,50.86,102.04,18.45,6.18,37.57,5.32,54.43-1.15v-62.34c0-12.11-5.63-23.37-16.22-29.86Zm-775.04,201.22c-18.3,0-35.29-5.59-49.37-15.13,43.77-5.09,77.76-42.29,77.76-87.44,0-30.32-15.34-57.06-38.67-72.9,3.37-.39,6.81-.6,10.27-.6,48.62,0,88.04,39.42,88.04,88.04s-39.42,88.04-88.04,88.04Zm271.05,43.99c-56.36,0-102.03-45.69-102.03-102.04s45.67-102.03,102.03-102.03,102.03,45.69,102.03,102.03-45.67,102.04-102.03,102.04Zm273.38-43.99c-48.62,0-88.02-39.42-88.02-88.04s39.4-88.04,88.02-88.04c3.47,0,6.91.2,10.29.6-23.35,15.84-38.67,42.58-38.67,72.9,0,45.14,33.97,82.35,77.76,87.44-14.08,9.54-31.07,15.13-49.38,15.13ZM118.27,490.18c-4.9-14.6-13.56-26.89-24.57-36.12-5.01,3.37-9.85,6.64-14.51,9.81-.69.68-1.36,1.03-2.04,1.37-20.82,14.5-37.72,26.63-47.45,33.62-9.72,7.33-16.22,17.75-16.22,29.86v62.53c16.74,6.3,35.66,7.07,53.94.96,42.23-14.14,64.99-59.82,50.84-102.04Z"/>
  <path class="cls-1" d="m93.59,453.97s.07.07.11.1c.01-.01.03-.03.05-.03-.05-.03-.11-.04-.16-.07ZM12.98,591.07c.16.14.34.27.5.41v-.22c-.16-.07-.34-.12-.5-.19Z"/>
</svg>