<?xml version="1.0" encoding="UTF-8"?>
<svg id="_Слой_1" data-name="Слой 1" xmlns="http://www.w3.org/2000/svg" viewBox="0 0 1080 1080">
  <defs>
    <style>
      .cls-1 {
        fill: #fff;
      }
    </style>
  </defs>
  <path class="cls-1" d="m134.55,584.33c4.63-19.47,11.62-81.33-20.03-80.61-28.1.66-35.51,35.63-40.45,57.54-5.41,24.11-10.97,55.4-14.04,79.91-2.96,23.67-5.67,66.99,27.54,69.73,41.12,3.4,56.58-41.86,60.4-74.8l21.09,1.92c-3.81,23.77-10.61,50.53-24.15,70.78-31.5,47.14-110.81,52.31-128.25-9.49-9.61-34.05,5.45-119.62,19.15-153.29,34.43-84.68,159.4-82.31,144.46,23.67l-45.74,14.64Z"/>
  <path class="cls-1" d="m489.31,521.92l-27.22,152.21-43.74,7.99,24.87-148.64c2.82-14.76-6.41-21.19-19.05-13.28-17.64,11.03-26.16,50.11-30.16,69.53-6.69,32.44-10.29,65.77-16.78,98.27l-45.2,7.55,32.96-187.55,43.74-8.01-13.12,45.38,3.52,2.54c7.83-25.15,26.62-55.44,55.16-58.94,23.65-2.9,34.13,10.29,35.03,32.96Z"/>
  <path class="cls-1" d="m644.54,500.91l-25.29,144.38-45.62,8.05,26.88-148.68c.42-19.51-13.22-20.17-24.97-7.57-31.12,33.41-28.7,119.34-42.02,162.68l-44.26,8.93,32.86-189.56,41.9-6.01-10.55,47.93c11.86-23.85,25.7-55.34,55.76-59.28,29.62-3.85,37.07,12.48,35.29,39.13Z"/>
  <path class="cls-1" d="m260.62,521.56c-34.07,4.31-54.15,30.44-63.03,61.58-15.52,54.29-26.1,139.91,56.78,131.56,52.47-5.27,65.75-61.72,71.36-105.04,6.29-48.77-4.87-95.75-65.11-88.1Zm27.06,48.15c-1.72,23.01-13.36,92.65-21.27,112.93-9.53,24.37-36.69,23.69-39.61-3.6-1.82-16.88,14.2-102.8,20.33-121.14,3.04-9.11,6.85-18.95,17.28-21.07,22.19-4.51,24.53,16.02,23.27,32.88Z"/>
  <path class="cls-1" d="m788.38,523.96c39.55-100.6-92.29-116.86-120.26-30.16-17.22,53.37-31.46,158.58,58.58,137.21,37.05-8.81,53.73-41.82,57.84-77.35l-17.34-1.14c-6.03,17.38-9.57,38.25-28.22,46.66-41.74,18.83-46.08-30.12-36.45-58.5l85.84-16.72Zm-72.44-51.35c2.94-8.07,7.09-16.16,16.28-18.26,33.65-7.69,20.35,44.48,15.42,62.44l-41.68,8.11c-2.02-2.8,7.65-45.88,9.99-52.29Z"/>
  <path class="cls-1" d="m899.59,486.53c3.38-14.34,11.34-58.82-10.61-59.56-10.15-.34-15.32,5.27-19.11,13.58-8.37,18.36-20.71,92.39-18.06,111.99,2.56,18.89,16.44,27.22,34.41,21.31,21.55-7.09,28.98-36.57,32.54-56.62,4.29,1.4,17.8.8,19.01,5.03,2.34,7.99-13.38,45.42-18.65,53.83-27.1,43.2-100.9,43-111.09-14.28-5.01-28.18,6.93-93.83,22.87-118.06,34.61-52.69,125.87-41.42,114.44,32.96l-45.76,9.83Z"/>
  <path class="cls-1" d="m1004.91,537.3c-2.98,21.65,20.19,15.82,29.88,4.87,4.79-.82,2.74,3.44,2.36,6.19-5.73,42.46-90.3,54.09-77.87-5.01l22.79-126.77-21.11,2.86c.76-19.53,7.35-19.35,24.75-21.25l7.85-39.13,46-23.99-9.49,52.77,3.89,2.1,32.42-4.09-4.13,16.02c-7.57,2-32.68,2.14-35.67,9.37l-21.65,126.07Z"/>
</svg>