<?xml version="1.0" encoding="UTF-8"?>
<svg id="_Слой_1" data-name="Слой 1" xmlns="http://www.w3.org/2000/svg" viewBox="0 0 1080 1080">
  <defs>
    <style>
      .cls-1 {
        fill: #ff3b00;
      }

      .cls-2 {
        fill: #fff;
      }
    </style>
  </defs>
  <path class="cls-2" d="m611.09,320.32v81.02c0,17.39-14.1,31.5-31.5,31.5H89.03L12.98,288.83h566.61c17.39,0,31.5,14.1,31.5,31.5Z"/>
  <path class="cls-1" d="m1067.02,479.98v264.04c0,26.04-21.11,47.15-47.15,47.15H60.12c-26.04,0-47.14-21.11-47.14-47.15v-455.2l76.04,144.01h930.84c26.04,0,47.15,21.11,47.15,47.15Z"/>
  <g>
    <path d="m136.2,331.42h21.9l27.27,59.33h-12.39l-6.19-13.99h-39.2l-6.19,13.99h-12.39l27.19-59.33Zm26.89,36.87l-15.79-35.77h-.23l-15.79,35.77h31.8Z"/>
    <path d="m201.53,331.42v59.33h-11.03v-59.33h11.03Zm32.4,0h13.9l-33.39,27.63,34.22,31.7h-13.07l-33.99-31.79,32.33-27.55Z"/>
    <path d="m273.36,340.41h-23.79v-8.98h58.76v8.98h-23.94v50.35h-11.03v-50.35Z"/>
    <path d="m325.86,388.34c-5.59-2.4-9.85-5.89-12.76-10.47-2.92-4.58-4.38-10.09-4.38-16.53s1.46-12.16,4.38-16.83c2.92-4.66,7.18-8.21,12.76-10.64,5.59-2.43,12.31-3.64,20.17-3.64s14.59,1.22,20.2,3.64c5.61,2.43,9.89,5.98,12.84,10.64,2.95,4.66,4.42,10.27,4.42,16.83s-1.47,11.95-4.42,16.53c-2.95,4.58-7.23,8.07-12.84,10.47-5.62,2.4-12.35,3.6-20.2,3.6s-14.58-1.2-20.17-3.6Zm1.13-11.4c4.53,3.73,10.88,5.59,19.03,5.59s14.58-1.85,19.11-5.55c4.53-3.7,6.8-8.91,6.8-15.64s-2.27-12.23-6.8-16.02c-4.53-3.78-10.9-5.68-19.11-5.68s-14.5,1.91-19.03,5.72c-4.53,3.81-6.8,9.14-6.8,15.98s2.27,11.87,6.8,15.6Z"/>
    <path d="m384.62,331.42h11.86l18.43,58.06h.38l18.05-58.06h17.52l18.2,58.06h.3l18.43-58.06h11.86l-20.02,59.33h-19.79l-17.6-57.98h-.3l-17.6,57.98h-19.71l-20.02-59.33Z"/>
    <path d="m526.62,331.42l35.05,58.23h.45v-58.23h10.95v59.33h-21.75l-35.12-58.4h-.38v58.4h-11.03v-59.33h21.83Z"/>
  </g>
  <g>
    <path class="cls-2" d="m161.6,548.54h-63.96v-37.71h167.84v37.71h-64.38v154.95h-39.51v-154.95Z"/>
    <path class="cls-2" d="m311.89,510.84h79.22l69.19,192.66h-44.73l-14.21-42.11h-99.7l-14.21,42.11h-44.52l68.98-192.66Zm77.55,114.77l-37.41-111.19h-.84l-37.41,111.19h75.67Z"/>
    <path class="cls-2" d="m512.13,510.84v154.68h107.23v37.98h-146.52v-192.66h39.3Z"/>
    <path class="cls-2" d="m634.2,510.83v192.66h39.5v-192.66h-39.5Z"/>
    <polygon class="cls-2" points="794.93 703.49 748.11 703.49 692.47 601.93 692.47 601.39 692.02 600.56 728.81 591.14 794.93 703.49"/>
    <polygon class="cls-2" points="803.72 510.83 718.43 607.16 673.7 607.16 753.97 510.83 803.72 510.83"/>
    <path class="cls-2" d="m889.78,544.69c-14.35,0-24.42,1.61-30.2,4.82-5.78,3.21-8.67,8.21-8.67,15,0,4.22,1.22,7.75,3.66,10.6,2.44,2.85,6.55,5.32,12.33,7.43,5.78,2.11,14.11,4.27,24.98,6.47,19.51,3.49,35.22,7.57,47.13,12.25,11.91,4.68,20.83,10.78,26.75,18.3,5.92,7.53,8.88,17.06,8.88,28.62,0,39.63-29.13,59.45-87.37,59.45-35.12,0-62.15-4.49-81.1-13.49l2.09-37.71c20.48,8.99,47.03,13.49,79.64,13.49,16.02,0,27.55-1.88,34.59-5.64,7.03-3.76,10.56-9.4,10.56-16.93,0-4.22-1.36-7.8-4.08-10.73-2.72-2.93-7.46-5.55-14.21-7.84-6.76-2.29-16.48-4.63-29.16-7.02-17.84-3.48-32.26-7.57-43.27-12.25-11.01-4.68-19.27-10.73-24.77-18.16-5.51-7.43-8.26-16.83-8.26-28.21,0-17.98,6.83-31.88,20.48-41.7,13.65-9.81,33.65-14.72,59.99-14.72,28.01,0,52.81,4.4,74.41,13.21l-2.51,38.26c-18.81-8.99-42.78-13.49-71.9-13.49Z"/>
  </g>
</svg>