<?xml version="1.0" encoding="UTF-8"?>
<svg id="_Слой_1" data-name="Слой 1" xmlns="http://www.w3.org/2000/svg" viewBox="0 0 1080 1080">
  <defs>
    <style>
      .cls-1 {
        fill: #fff;
      }
    </style>
  </defs>
  <path class="cls-1" d="m1021.85,331.81c-16.63-38.38-37.65-74.38-62.5-107.27-19.92-26.5-42.4-51.08-66.89-73.28-19.55-17.73-40.48-33.99-62.5-48.61-21.2-14.16-43.49-26.77-66.79-37.65-20.19-9.59-41.02-17.82-62.5-24.67-21.47-6.94-43.68-12.52-66.25-16.63-20.47-3.75-41.3-6.3-62.5-7.49-10.6-.64-21.29-1-31.98-1-11.42,0-22.84.37-34.09,1.1-21.2,1.37-42.03,3.93-62.5,7.86-22.84,4.2-45.23,9.87-66.88,17.09-21.47,6.94-42.4,15.35-62.5,25.04-23.3,11.06-45.69,23.85-66.88,38.19-22.11,14.89-42.94,31.43-62.5,49.43-24.58,22.57-47.06,47.61-66.88,74.56-25.04,33.81-46.15,70.81-62.5,110.2-25.77,62.04-40.02,130.02-40.02,201.39s14.25,139.34,40.02,201.39c16.36,39.38,37.46,76.39,62.5,110.2,19.83,26.95,42.3,51.9,66.88,74.56,19.56,18,40.39,34.45,62.5,49.34,21.2,14.35,43.59,27.14,66.88,38.29,20.1,9.59,41.03,18,62.5,24.94,21.66,7.22,44.04,12.88,66.88,17.09,20.47,3.93,41.3,6.49,62.5,7.86,11.24.73,22.66,1.1,34.09,1.1,10.69,0,21.38-.37,31.98-1,21.2-1.19,42.03-3.75,62.5-7.49,22.57-4.11,44.77-9.69,66.25-16.63,21.47-6.85,42.3-15.08,62.5-24.58,23.3-10.96,45.6-23.57,66.79-37.74,22.02-14.53,42.95-30.79,62.5-48.52,24.49-22.3,46.97-46.78,66.89-73.28,24.85-32.89,45.87-68.9,62.5-107.27,27.59-63.87,42.95-134.23,42.95-208.24s-15.35-144.37-42.95-208.24ZM247.1,897.77c-22.75-18.55-43.67-39.29-62.5-61.86-25.4-30.61-47.06-64.51-63.96-101.06-.55-1-1-2.01-1.37-3.02-.18-.27-.37-.64-.46-1-.09-.18-.18-.27-.27-.46-.37-.55-.64-1.19-.82-1.74-9.14-20.38-16.82-41.48-22.84-63.32-1.19-3.93-2.2-7.86-3.2-11.88-.64-2.28-1.19-4.48-1.65-6.76-.18-.55-.27-1.1-.37-1.64-.64-2.38-1.19-4.75-1.64-7.13-.73-3.38-1.46-6.85-2.11-10.33-.09-.46-.18-.91-.27-1.37-.18-1.1-.37-2.19-.55-3.38-.27-.91-.37-1.83-.55-2.74-.27-1.37-.46-2.74-.73-4.11-.09-.64-.18-1.28-.27-1.92-.18-.64-.28-1.37-.37-2.1-.09-.55-.18-1.1-.27-1.64-.46-2.74-.91-5.48-1.19-8.31-.54-4.11-1-8.13-1.46-12.24-1.74-16.36-2.65-32.89-2.65-49.71s.91-33.35,2.65-49.71c.46-4.11.91-8.13,1.46-12.24.28-2.83.73-5.57,1.19-8.32.09-.55.18-1.1.27-1.64.09-.73.18-1.37.37-2.1.27-2.01.64-4.02,1-6.03.09-.46.18-.91.28-1.37,0-.18,0-.46.09-.73.09-.09.09-.27.09-.37s.09-.09.09-.18v-.09c.18-1.19.37-2.28.55-3.38.09-.46.18-.91.27-1.37.64-3.47,1.37-6.94,2.11-10.32.54-2.38,1-4.75,1.64-7.13.09-.55.18-1.1.37-1.64.46-2.28,1-4.48,1.65-6.76,1-3.93,2.1-7.86,3.2-11.79,1.09-3.93,2.28-7.86,3.56-11.79,5.3-17.73,11.79-35,19.28-51.72.18-.55.46-1.19.82-1.74.09-.18.18-.27.27-.46.09-.37.28-.73.46-1,.37-1,.82-2.01,1.37-3.02v172.37c0,81.78,23.48,177.16,63.96,241.67V244.09c18.82-22.57,39.75-43.31,62.5-61.95v715.63Zm129.39,74.83c-21.66-8.13-42.58-17.91-62.5-29.15v-327.02h62.5v356.17Zm129.38,28.51c-21.29-1.55-42.12-4.48-62.5-8.86v-443.98h-129.39V136.54c19.92-11.24,40.85-21.02,62.5-29.15v378.38h129.38v515.34Zm0-583.51h-62.5V87.75c20.38-4.39,41.21-7.31,62.5-8.86v338.72Zm257.31,527.41c-19.92,11.06-40.84,20.65-62.5,28.69v-425.43h-66.25v444.44c-20.38,4.2-41.21,7.13-62.5,8.5V78.79c21.29,1.37,42.12,4.2,62.5,8.5v398.48h66.25V106.3c21.66,8.04,42.58,17.63,62.5,28.69v810.02Zm196.18-209.98c-17.54,37.83-40.11,72.82-66.89,104.26-18.91,22.2-39.84,42.58-62.5,60.85V179.76c22.66,18.37,43.59,38.74,62.5,60.95v523.14c42.31-65.51,66.89-162.54,66.89-246.33v-172.47c27.68,59.3,43.04,125.36,43.04,194.99s-15.44,135.78-43.04,194.99Z"/>
</svg>